<svg xmlns="http://www.w3.org/2000/svg" width="1000" height="233"><path fill-opacity=".8" fill-rule="evenodd" d="M694.11 231.91h10.631v-11.514h-10.63v11.515zm-22.58-17.661l-.233-39.915h11.096v57.577H672.15l-26.46-39.837.232 39.837h-11.097v-57.577h10.321l26.384 39.915zm-95.602-11.126c0 10.503 7.528 19.684 18.702 19.684 11.64 0 18.468-10.114 18.468-19.607 0-9.648-6.828-19.762-18.546-19.762-11.484 0-18.624 9.492-18.624 19.607v.078zm-11.562.467c0-18.44 14.123-30.345 30.109-30.345 17.382 0 30.186 13.538 30.186 29.878 0 16.339-12.727 29.877-30.264 29.877-17.615 0-30.031-13.927-30.031-29.333v-.077zm-24.753 28.32h11.562v-57.576h-11.562v57.576zm-40.196-17.895c.388 7.78 5.588 9.26 8.071 9.26 4.423 0 7.837-3.58 7.837-7.626 0-4.901-4.112-6.146-12.105-9.336-4.346-1.556-14.356-5.135-14.356-16.028 0-11.049 9.7-17.04 19.012-17.04 7.605 0 17.692 4.046 18.158 16.806h-11.407c-.466-2.645-1.474-7.08-7.139-7.08-3.803 0-7.062 2.645-7.062 6.536-.077 4.279 3.027 5.368 12.727 9.414 8.768 3.813 13.657 8.014 13.657 16.184 0 9.259-5.665 17.895-19.167 17.895-13.037 0-19.788-7.858-19.71-18.985h11.484zm-48.886 0c.388 7.78 5.587 9.26 8.07 9.26 4.424 0 7.838-3.58 7.838-7.626 0-4.901-4.113-6.146-12.106-9.336-4.345-1.556-14.355-5.135-14.355-16.028 0-11.049 9.7-17.04 19.012-17.04 7.604 0 17.692 4.046 18.158 16.806H465.74c-.466-2.645-1.475-7.08-7.14-7.08-3.802 0-7.06 2.645-7.06 6.536-.079 4.279 3.025 5.368 12.725 9.414 8.769 3.813 13.658 8.014 13.658 16.184 0 9.259-5.665 17.895-19.167 17.895-13.037 0-19.788-7.858-19.71-18.985h11.484zm-45.161-25.987l-8.148 23.342h16.528l-8.38-23.342zm-15.287 43.883H377.51l23.28-57.577h10.166l22.737 57.577h-12.65l-4.19-11.282h-22.658l-4.113 11.282zm-43.765-29.955h6.828c2.639 0 5.2-.234 7.528-1.479 2.095-1.09 3.802-3.656 3.802-7.314 0-3.656-1.707-6.068-3.958-7.158-2.328-1.245-4.966-1.478-7.837-1.478h-6.363v17.429zm5.82-27.622c9.7 0 13.58 1.401 16.916 3.969 4.19 3.423 6.519 9.025 6.519 14.705s-2.406 11.593-6.053 14.55c-3.88 3.19-7.76 4.59-16.14 4.59h-7.062v19.763h-11.562v-57.577h17.382zm-91.022 39.681c.388 7.78 5.587 9.26 8.07 9.26 4.423 0 7.838-3.58 7.838-7.626 0-4.901-4.113-6.146-12.106-9.336-4.345-1.556-14.356-5.135-14.356-16.028 0-11.049 9.7-17.04 19.012-17.04 7.605 0 17.693 4.046 18.158 16.806h-11.407c-.465-2.645-1.474-7.08-7.14-7.08-3.801 0-7.06 2.645-7.06 6.536-.078 4.279 3.026 5.368 12.726 9.414 8.768 3.813 13.657 8.014 13.657 16.184 0 9.259-5.664 17.895-19.167 17.895-13.036 0-19.787-7.858-19.71-18.985h11.485zm-54.706-39.68h32.203v10.192h-20.641V197.6h20.253v10.192h-20.253v13.927h20.641v10.193H206.41v-57.577zm-63.708 0h11.95l14.356 43.726 14.511-43.727h11.95l-20.564 57.577h-11.717l-20.486-57.577zm-22.503 57.575h11.562v-57.576h-11.562v57.576zm-55.25-57.576h17.383c8.923 0 14.045 1.401 17.15 3.657 4.733 3.424 7.293 9.26 7.293 15.64 0 4.2-1.164 7.936-3.104 10.737-2.483 3.656-5.742 5.29-9.467 6.224l12.804 21.319H94.903L79.46 205.146h2.25c3.803 0 7.916-.234 10.321-2.101 2.251-1.867 3.648-4.902 3.648-8.403 0-3.502-1.708-6.692-4.268-8.325-2.096-1.323-4.89-1.79-8.148-1.79h-6.751v47.384H64.949v-57.577zm-48.575 47.384h8.147c12.416 0 17.227-8.17 17.227-18.518 0-4.512-1.164-9.336-3.88-12.915-2.405-3.113-6.285-5.758-13.27-5.758h-8.224v37.191zM4.81 174.334h18.236c7.139 0 17.537.7 24.366 9.96 4.19 5.29 5.898 11.67 5.898 18.75 0 16.262-8.536 28.867-29.41 28.867H4.81v-57.577zm950.34-86.622h11.562v26.687l19.012-26.687h12.183l-20.797 28.71 22.892 28.866h-14.123l-19.167-25.831v25.831H955.15V87.712zm-54.94 0h17.383c8.924 0 14.045 1.4 17.15 3.657 4.733 3.423 7.294 9.259 7.294 15.639 0 4.201-1.164 7.936-3.104 10.737-2.484 3.657-5.743 5.29-9.468 6.224l12.804 21.319h-12.105l-15.442-26.765h2.25c3.802 0 7.915-.233 10.32-2.1 2.251-1.868 3.648-4.903 3.648-8.404 0-3.501-1.707-6.691-4.268-8.325-2.095-1.323-4.889-1.79-8.148-1.79h-6.751v47.384H900.21V87.712zM841.547 116.5c0 10.504 7.526 19.685 18.701 19.685 11.64 0 18.469-10.115 18.469-19.607 0-9.648-6.83-19.763-18.546-19.763-11.486 0-18.624 9.492-18.624 19.607v.078zm-11.563.467c0-18.44 14.123-30.344 30.109-30.344 17.382 0 30.186 13.538 30.186 29.877s-12.726 29.877-30.264 29.877c-17.615 0-30.03-13.927-30.03-29.332v-.078zm-76.511-29.255h11.795l9.777 41.704 10.01-41.704h8.847l10.088 41.781 9.7-41.781h11.717l-15.52 57.576h-10.398L789.4 104.44l-10.01 40.848h-10.71l-15.21-57.576zm-77.52 0h32.204v10.192h-20.641v13.072h20.253v10.192h-20.253v13.928h20.64v10.192h-32.203V87.712zm-53.62 0h17.383c8.924 0 14.045 1.4 17.15 3.657 4.733 3.423 7.293 9.259 7.293 15.639 0 4.201-1.164 7.936-3.104 10.737-2.483 3.657-5.742 5.29-9.467 6.224l12.804 21.319h-12.105l-15.443-26.765h2.25c3.803 0 7.916-.233 10.322-2.1 2.25-1.868 3.647-4.903 3.647-8.404 0-3.501-1.707-6.691-4.268-8.325-2.095-1.323-4.89-1.79-8.148-1.79h-6.751v47.384h-11.562V87.712zm-47.489 0h32.204v10.192h-20.642v13.072h20.254v10.192h-20.254v13.928h20.642v10.192h-32.204V87.712zm-60.991 57.576V87.712h11.562v23.108h22.116V87.712h11.562v57.576H547.53v-24.275h-22.116v24.275h-11.562zm-81.944-57.576h11.796l9.777 41.704 10.01-41.704h8.847l10.088 41.781 9.7-41.781h11.717l-15.52 57.576h-10.398l-10.088-40.848-10.01 40.848h-10.709l-15.21-57.576zm-79.847 47.384h8.148c12.416 0 17.227-8.17 17.227-18.518 0-4.513-1.164-9.337-3.88-12.916-2.406-3.112-6.286-5.758-13.27-5.758h-8.225v37.192zm-11.563-47.384h18.236c7.14 0 17.538.7 24.366 9.959 4.19 5.29 5.898 11.67 5.898 18.751 0 16.261-8.536 28.866-29.41 28.866h-19.09V87.712zm-41.437 0h11.563v47.384h18.856v10.192h-30.419V87.712zm-57.034 0h17.383c8.924 0 14.045 1.4 17.149 3.657 4.734 3.423 7.295 9.259 7.295 15.639 0 4.201-1.164 7.936-3.104 10.737-2.484 3.657-5.743 5.29-9.468 6.224l12.804 21.319h-12.105l-15.443-26.765h2.25c3.803 0 7.916-.233 10.322-2.1 2.25-1.868 3.647-4.903 3.647-8.404 0-3.501-1.707-6.691-4.268-8.325-2.095-1.323-4.889-1.79-8.148-1.79h-6.751v47.384h-11.563V87.712zM181.811 116.5c0 10.504 7.528 19.685 18.701 19.685 11.64 0 18.47-10.115 18.47-19.607 0-9.648-6.83-19.763-18.547-19.763-11.484 0-18.624 9.492-18.624 19.607v.078zm-11.562.467c0-18.44 14.123-30.344 30.108-30.344 17.383 0 30.186 13.538 30.186 29.877s-12.726 29.877-30.263 29.877c-17.615 0-30.031-13.927-30.031-29.332v-.078zM93.738 87.712h11.795l9.777 41.704 10.01-41.704h8.847l10.088 41.781 9.7-41.781h11.717l-15.52 57.576h-10.398l-10.088-40.848-10.01 40.848h-10.71L93.739 87.712zm-65.88 13.694l-8.148 23.341h16.529l-8.38-23.341zm-15.287 43.882H0l23.28-57.576h10.165l22.736 57.576H43.533l-4.19-11.282h-22.66l-4.112 11.282zM278.807 1.089h32.203v10.193h-20.64v13.071h20.253v10.193H290.37v13.927h20.641v10.192h-32.203V1.09zm-35.54 10.193h-12.415V1.089h36.317v10.193H254.83v47.383h-11.562V11.282zm-45.47 3.5l-8.149 23.343h16.53l-8.382-23.342zm-15.288 43.883h-12.57L193.217 1.09h10.166l22.736 57.576H213.47l-4.19-11.282h-22.659l-4.113 11.282zM128.346 1.09h32.204v10.193h-20.641v13.071h20.253v10.193h-20.253v13.927h20.64v10.192h-32.203V1.09zm-55.172 0h17.383c8.924 0 14.045 1.4 17.149 3.657 4.734 3.424 7.295 9.259 7.295 15.639 0 4.201-1.164 7.936-3.104 10.737-2.484 3.657-5.743 5.29-9.468 6.225l12.804 21.318h-12.105L87.686 31.9h2.25c3.802 0 7.915-.233 10.32-2.1 2.251-1.868 3.648-4.902 3.648-8.404 0-3.5-1.707-6.69-4.268-8.325-2.095-1.322-4.889-1.79-8.148-1.79h-6.751v47.384H73.174V1.09zM60.527 39.37c-3.492 11.905-14.666 20.386-28.09 20.386-17.538 0-30.109-13.928-30.109-29.955C2.328 14.472 14.201 0 32.359 0c16.528.078 25.918 12.293 28.168 20.696H48.344c-1.784-3.968-6.906-10.426-16.063-10.504-11.174 0-18.39 9.415-18.39 19.608 0 10.503 7.526 19.762 18.468 19.762 10.243 0 14.899-8.092 15.985-10.193h12.183z"/></svg>