<svg width="833" height="472" xmlns="http://www.w3.org/2000/svg"><path d="M34.36 106.2h12.16c10.453 0 18.667-3.2 24.64-9.6 5.973-6.4 8.96-14.987 8.96-25.76 0-10.773-2.987-19.36-8.96-25.76-5.973-6.4-14.187-9.6-24.64-9.6H34.36v70.72zm12.16-91.52c17.92 0 32.64 5.2 44.16 15.6 11.52 10.4 17.28 23.893 17.28 40.48 0 16.587-5.76 30.107-17.28 40.56C79.16 121.773 64.44 127 46.52 127H7V14.68h39.52zm108.32 17.6c-4.48 0-8.267-1.547-11.36-4.64s-4.64-6.907-4.64-11.44c0-4.533 1.547-8.347 4.64-11.44S150.36.12 154.84.12c4.48 0 8.267 1.547 11.36 4.64s4.64 6.907 4.64 11.44c0 4.533-1.547 8.347-4.64 11.44s-6.88 4.64-11.36 4.64zM141.24 127V37.72h27.36V127h-27.36zm61.28-62.4c0-7.893 3.36-14.507 10.08-19.84 6.72-5.333 15.813-8 27.28-8s20.72 2.613 27.76 7.84c7.04 5.227 10.773 12.373 11.2 21.44h-28c-.32-3.093-1.387-5.2-3.2-6.32-1.813-1.12-4.533-1.68-8.16-1.68-7.147 0-10.72 2.187-10.72 6.56 0 3.947 4.373 6.667 13.12 8.16 8.853 1.493 16.907 3.787 24.16 6.88 3.733 1.493 6.853 3.973 9.36 7.44 2.507 3.467 3.76 7.707 3.76 12.72 0 8.32-3.573 15.12-10.72 20.4-7.147 5.28-16.16 7.92-27.04 7.92-10.88 0-19.947-2.48-27.2-7.44-7.253-4.96-11.2-12.293-11.84-22h28c.747 5.44 4.587 8.16 11.52 8.16 3.2 0 5.84-.747 7.92-2.24 2.08-1.493 3.12-3.413 3.12-5.76s-1.733-4.213-5.2-5.6c-3.467-1.387-7.653-2.56-12.56-3.52-4.907-.96-9.84-2.16-14.8-3.6-4.96-1.44-9.173-3.947-12.64-7.52-3.467-3.573-5.2-8.24-5.2-14zm104.32 17.76c0-13.867 4.133-24.933 12.4-33.2 8.267-8.267 18.96-12.4 32.08-12.4 10.88 0 20.107 2.693 27.68 8.08 7.573 5.387 12.587 13.093 15.04 23.12h-29.6c-2.56-5.333-6.747-8-12.56-8-5.813 0-10.133 2.053-12.96 6.16-2.827 4.107-4.24 9.52-4.24 16.24 0 6.72 1.413 12.133 4.24 16.24 2.827 4.107 6.96 6.16 12.4 6.16 3.413 0 6.08-.587 8-1.76s3.627-3.253 5.12-6.24h29.6c-2.453 9.6-7.52 17.227-15.2 22.88-7.68 5.653-16.853 8.48-27.52 8.48-13.12 0-23.813-4.16-32.08-12.48s-12.4-19.413-12.4-33.28zm177.6 0c0-7.253-1.867-12.773-5.6-16.56-3.733-3.787-8.16-5.68-13.28-5.68-5.12 0-9.52 1.893-13.2 5.68-3.68 3.787-5.52 9.307-5.52 16.56 0 7.253 1.893 12.8 5.68 16.64s8.24 5.76 13.36 5.76c5.12 0 9.493-1.92 13.12-5.76 3.627-3.84 5.44-9.387 5.44-16.64zM419 82.2c0-13.76 4.48-24.773 13.44-33.04 8.96-8.267 20.053-12.4 33.28-12.4s24.293 4.133 33.2 12.4c8.907 8.267 13.36 19.28 13.36 33.04 0 13.76-4.427 24.853-13.28 33.28s-19.893 12.64-33.12 12.64c-13.227 0-24.347-4.213-33.36-12.64C423.507 107.053 419 95.96 419 82.2zm115.52-44.48h29.12l20.32 66.4 20.32-66.4h29.12L601.72 127H566.2l-31.68-89.28zm165.44 90.4c-13.013 0-23.68-4.187-32-12.56-8.32-8.373-12.48-19.493-12.48-33.36s4.133-24.907 12.4-33.12c8.267-8.213 18.96-12.32 32.08-12.32 13.12 0 24 4.053 32.64 12.16s12.96 19.36 12.96 33.76c0 3.093-.213 5.973-.64 8.64h-61.44c.533 3.947 2.293 7.173 5.28 9.68 2.987 2.507 6.213 3.76 9.68 3.76 3.467 0 6.053-.347 7.76-1.04 1.707-.693 2.96-1.387 3.76-2.08.8-.693 1.84-1.84 3.12-3.44h29.6c-2.56 8.96-7.68 16.187-15.36 21.68-7.68 5.493-16.8 8.24-27.36 8.24zm11.68-64.08c-3.2-2.613-6.987-3.92-11.36-3.92-4.373 0-8.053 1.307-11.04 3.92-2.987 2.613-4.853 6-5.6 10.16h33.44c-.427-4.16-2.24-7.547-5.44-10.16zm94.88-26.32v16.64c6.4-11.733 14.933-17.6 25.6-17.6V64.6h-6.72c-6.293 0-11.013 1.493-14.16 4.48-3.147 2.987-4.72 8.213-4.72 15.68V127h-27.36V37.72h27.36zM.44 220.52c0-16.64 5.573-30.373 16.72-41.2 11.147-10.827 24.773-16.24 40.88-16.24 12.48 0 23.573 3.307 33.28 9.92 9.707 6.613 16.48 15.787 20.32 27.52H79c-4.267-8.213-11.093-12.32-20.48-12.32s-16.773 2.933-22.16 8.8c-5.387 5.867-8.08 13.707-8.08 23.52 0 9.813 2.693 17.653 8.08 23.52 5.387 5.867 12.773 8.8 22.16 8.8s16.213-4.107 20.48-12.32h32.64c-3.84 11.733-10.613 20.907-20.32 27.52-9.707 6.613-20.8 9.92-33.28 9.92-16.107 0-29.733-5.413-40.88-16.24C6.013 250.893.44 237.16.44 220.52zm203.84 11.84c0-7.253-1.867-12.773-5.6-16.56-3.733-3.787-8.16-5.68-13.28-5.68-5.12 0-9.52 1.893-13.2 5.68-3.68 3.787-5.52 9.307-5.52 16.56 0 7.253 1.893 12.8 5.68 16.64s8.24 5.76 13.36 5.76c5.12 0 9.493-1.92 13.12-5.76 3.627-3.84 5.44-9.387 5.44-16.64zm-65.44-.16c0-13.76 4.48-24.773 13.44-33.04 8.96-8.267 20.053-12.4 33.28-12.4s24.293 4.133 33.2 12.4c8.907 8.267 13.36 19.28 13.36 33.04 0 13.76-4.427 24.853-13.28 33.28s-19.893 12.64-33.12 12.64c-13.227 0-24.347-4.213-33.36-12.64-9.013-8.427-13.52-19.52-13.52-33.28zm154.24-44.48v13.12c5.653-9.387 14.667-14.08 27.04-14.08 10.24 0 18.533 3.413 24.88 10.24 6.347 6.827 9.52 16.107 9.52 27.84V277h-27.2v-48.48c0-5.76-1.52-10.213-4.56-13.36-3.04-3.147-7.227-4.72-12.56-4.72s-9.52 1.573-12.56 4.72c-3.04 3.147-4.56 7.6-4.56 13.36V277h-27.36v-89.28h27.36zm128 0v13.12c5.653-9.387 14.667-14.08 27.04-14.08 10.24 0 18.533 3.413 24.88 10.24 6.347 6.827 9.52 16.107 9.52 27.84V277h-27.2v-48.48c0-5.76-1.52-10.213-4.56-13.36-3.04-3.147-7.227-4.72-12.56-4.72s-9.52 1.573-12.56 4.72c-3.04 3.147-4.56 7.6-4.56 13.36V277h-27.36v-89.28h27.36zm138.56 90.4c-13.013 0-23.68-4.187-32-12.56-8.32-8.373-12.48-19.493-12.48-33.36s4.133-24.907 12.4-33.12c8.267-8.213 18.96-12.32 32.08-12.32 13.12 0 24 4.053 32.64 12.16s12.96 19.36 12.96 33.76c0 3.093-.213 5.973-.64 8.64h-61.44c.533 3.947 2.293 7.173 5.28 9.68 2.987 2.507 6.213 3.76 9.68 3.76 3.467 0 6.053-.347 7.76-1.04 1.707-.693 2.96-1.387 3.76-2.08.8-.693 1.84-1.84 3.12-3.44h29.6c-2.56 8.96-7.68 16.187-15.36 21.68-7.68 5.493-16.8 8.24-27.36 8.24zm11.68-64.08c-3.2-2.613-6.987-3.92-11.36-3.92-4.373 0-8.053 1.307-11.04 3.92-2.987 2.613-4.853 6-5.6 10.16h33.44c-.427-4.16-2.24-7.547-5.44-10.16zm60.96 18.32c0-13.867 4.133-24.933 12.4-33.2 8.267-8.267 18.96-12.4 32.08-12.4 10.88 0 20.107 2.693 27.68 8.08 7.573 5.387 12.587 13.093 15.04 23.12h-29.6c-2.56-5.333-6.747-8-12.56-8-5.813 0-10.133 2.053-12.96 6.16-2.827 4.107-4.24 9.52-4.24 16.24 0 6.72 1.413 12.133 4.24 16.24 2.827 4.107 6.96 6.16 12.4 6.16 3.413 0 6.08-.587 8-1.76s3.627-3.253 5.12-6.24h29.6c-2.453 9.6-7.52 17.227-15.2 22.88-7.68 5.653-16.853 8.48-27.52 8.48-13.12 0-23.813-4.16-32.08-12.48s-12.4-19.413-12.4-33.28zm156.48 21.44h9.76V277H784.6c-10.027 0-17.787-2.213-23.28-6.64-5.493-4.427-8.24-12.027-8.24-22.8v-37.12h-8.32v-22.72h8.32v-21.76h27.36v21.76h17.92v22.72h-17.92v37.12c0 4.16 2.773 6.24 8.32 6.24zM75 314.36v20.8H34.36v24.16H70.2v20.8H34.36v26.08H75V427H7V314.36h68zm66.88 23.36v13.12c5.653-9.387 14.667-14.08 27.04-14.08 10.24 0 18.533 3.413 24.88 10.24 6.347 6.827 9.52 16.107 9.52 27.84V427h-27.2v-48.48c0-5.76-1.52-10.213-4.56-13.36-3.04-3.147-7.227-4.72-12.56-4.72s-9.52 1.573-12.56 4.72c-3.04 3.147-4.56 7.6-4.56 13.36V427h-27.36v-89.28h27.36zm94.08 44.8c0-13.333 3.947-24.293 11.84-32.88 7.893-8.587 17.52-12.88 28.88-12.88s20.08 4.213 26.16 12.64v-11.68h27.36v88.8c0 12.48-3.413 22.88-10.24 31.2-3.413 4.267-8.08 7.573-14 9.92-5.92 2.347-12.773 3.52-20.56 3.52-13.653 0-24.48-2.773-32.48-8.32-8-5.547-12.533-14.027-13.6-25.44h26.88c2.56 6.72 8.96 10.08 19.2 10.08 5.013 0 9.173-1.68 12.48-5.04 3.307-3.36 4.96-8.667 4.96-15.92v-12.48c-6.613 9.387-15.467 14.08-26.56 14.08-11.093 0-20.587-4.267-28.48-12.8-7.893-8.533-11.84-19.467-11.84-32.8zm66.88-.16c0-7.04-1.973-12.453-5.92-16.24-3.947-3.787-8.48-5.68-13.6-5.68-5.12 0-9.653 1.92-13.6 5.76-3.947 3.84-5.92 9.28-5.92 16.32 0 7.04 1.973 12.453 5.92 16.24 3.947 3.787 8.48 5.68 13.6 5.68 5.12 0 9.653-1.92 13.6-5.76 3.947-3.84 5.92-9.28 5.92-16.32zm127.68 0c0-7.04-1.973-12.453-5.92-16.24-3.947-3.787-8.48-5.68-13.6-5.68-5.12 0-9.653 1.92-13.6 5.76-3.947 3.84-5.92 9.28-5.92 16.32 0 7.04 1.973 12.453 5.92 16.24 3.947 3.787 8.48 5.68 13.6 5.68 5.12 0 9.653-1.92 13.6-5.76 3.947-3.84 5.92-9.28 5.92-16.32zm-66.88.16c0-13.333 3.947-24.293 11.84-32.88 7.893-8.587 17.52-12.88 28.88-12.88s20.08 4.213 26.16 12.64v-11.68h27.36V427h-27.36v-12.96c-6.613 9.387-15.467 14.08-26.56 14.08-11.093 0-20.587-4.267-28.48-12.8-7.893-8.533-11.84-19.467-11.84-32.8zm127.68 0c0-13.333 3.947-24.293 11.84-32.88 7.893-8.587 17.52-12.88 28.88-12.88s20.08 4.213 26.16 12.64v-11.68h27.36v88.8c0 12.48-3.413 22.88-10.24 31.2-3.413 4.267-8.08 7.573-14 9.92-5.92 2.347-12.773 3.52-20.56 3.52-13.653 0-24.48-2.773-32.48-8.32-8-5.547-12.533-14.027-13.6-25.44h26.88c2.56 6.72 8.96 10.08 19.2 10.08 5.013 0 9.173-1.68 12.48-5.04 3.307-3.36 4.96-8.667 4.96-15.92v-12.48c-6.613 9.387-15.467 14.08-26.56 14.08-11.093 0-20.587-4.267-28.48-12.8-7.893-8.533-11.84-19.467-11.84-32.8zm66.88-.16c0-7.04-1.973-12.453-5.92-16.24-3.947-3.787-8.48-5.68-13.6-5.68-5.12 0-9.653 1.92-13.6 5.76-3.947 3.84-5.92 9.28-5.92 16.32 0 7.04 1.973 12.453 5.92 16.24 3.947 3.787 8.48 5.68 13.6 5.68 5.12 0 9.653-1.92 13.6-5.76 3.947-3.84 5.92-9.28 5.92-16.32zm105.28 45.76c-13.013 0-23.68-4.187-32-12.56-8.32-8.373-12.48-19.493-12.48-33.36s4.133-24.907 12.4-33.12c8.267-8.213 18.96-12.32 32.08-12.32 13.12 0 24 4.053 32.64 12.16s12.96 19.36 12.96 33.76c0 3.093-.213 5.973-.64 8.64H647c.533 3.947 2.293 7.173 5.28 9.68 2.987 2.507 6.213 3.76 9.68 3.76 3.467 0 6.053-.347 7.76-1.04 1.707-.693 2.96-1.387 3.76-2.08.8-.693 1.84-1.84 3.12-3.44h29.6c-2.56 8.96-7.68 16.187-15.36 21.68-7.68 5.493-16.8 8.24-27.36 8.24zm11.68-64.08c-3.2-2.613-6.987-3.92-11.36-3.92-4.373 0-8.053 1.307-11.04 3.92-2.987 2.613-4.853 6-5.6 10.16h33.44c-.427-4.16-2.24-7.547-5.44-10.16z" fill-rule="evenodd" fill-opacity=".05"/></svg>