<svg width="383" height="839" xmlns="http://www.w3.org/2000/svg"><path d="M34.5 838.7h-26V727.9h26v38.4h114.4v34.2H34.5v38.2zm58.6-205c-9.067 0-15.967 2.333-20.7 7-4.733 4.667-7.1 10.2-7.1 16.6 0 6.4 2.367 11.9 7.1 16.5s11.633 6.9 20.7 6.9 16-2.367 20.8-7.1c4.8-4.733 7.2-10.3 7.2-16.7 0-6.4-2.4-11.867-7.2-16.4-4.8-4.533-11.733-6.8-20.8-6.8zm-.2 81.8c-17.2 0-30.967-5.6-41.3-16.8-10.333-11.2-15.5-25.067-15.5-41.6s5.167-30.367 15.5-41.5 24.1-16.7 41.3-16.7c17.2 0 31.067 5.533 41.6 16.6 10.533 11.067 15.8 24.867 15.8 41.4 0 16.533-5.267 30.433-15.8 41.7-10.533 11.267-24.4 16.9-41.6 16.9zm56-172.8v34.2H.9v-34.2h83l-46.6-34.6v-46l57 47.8 54.6-47.8v45.4l-44.6 35.2h44.6zm-2.2-125.6L37.3 460.5v-38.8l73-24.8-73-27.2v-35.8l164.8 71.2v35.8l-55.4-23.8zM93.1 244.3c-9.067 0-15.967 2.333-20.7 7-4.733 4.667-7.1 10.2-7.1 16.6 0 6.4 2.367 11.9 7.1 16.5s11.633 6.9 20.7 6.9 16-2.367 20.8-7.1c4.8-4.733 7.2-10.3 7.2-16.7 0-6.4-2.4-11.867-7.2-16.4-4.8-4.533-11.733-6.8-20.8-6.8zm-.2 81.8c-17.2 0-30.967-5.6-41.3-16.8-10.333-11.2-15.5-25.067-15.5-41.6s5.167-30.367 15.5-41.5 24.1-16.7 41.3-16.7c17.2 0 31.067 5.533 41.6 16.6 10.533 11.067 15.8 24.867 15.8 41.4 0 16.533-5.267 30.433-15.8 41.7-10.533 11.267-24.4 16.9-41.6 16.9zm34.8-129.6v-28.2c13.467-5.867 26.133-7.4 38-4.6 5.867 1.467 10.667 4.633 14.4 9.5 3.733 4.867 5.6 11.233 5.6 19.1h-13c0-3.6-.8-6.233-2.4-7.9-1.6-1.667-4.533-2.5-8.8-2.5h-3.2v14.6h-30.6zm156.4 403h-95.6v-34.2h95.6c14.533 0 25.867 4.367 34 13.1s12.2 19.9 12.2 33.5c0 13.6-4.033 24.733-12.1 33.4-8.067 8.667-19.433 13-34.1 13v-34c5.333-.133 9.267-1.333 11.8-3.6 2.533-2.267 3.8-5.2 3.8-8.8 0-3.6-1.267-6.567-3.8-8.9s-6.467-3.5-11.8-3.5zm-11-144.6c-8.8 0-15.567 2.467-20.3 7.4-4.733 4.933-7.1 10.6-7.1 17s2.4 12.067 7.2 17c4.8 4.933 11.6 7.4 20.4 7.4 8.8 0 15.567-2.467 20.3-7.4 4.733-4.933 7.1-10.6 7.1-17s-2.4-12.067-7.2-17c-4.8-4.933-11.6-7.4-20.4-7.4zm.2 83.6c-16.667 0-30.367-4.933-41.1-14.8s-16.1-21.9-16.1-36.1c0-14.2 5.267-25.1 15.8-32.7h-14.6v-34.2h111.6v34.2h-16.2c11.733 8.267 17.6 19.333 17.6 33.2 0 13.867-5.333 25.733-16 35.6s-24.333 14.8-41 14.8zm0-230.8c-8.8 0-15.6 2.467-20.4 7.4-4.8 4.933-7.2 10.6-7.2 17s2.367 12.067 7.1 17 11.5 7.4 20.3 7.4 15.6-2.467 20.4-7.4c4.8-4.933 7.2-10.6 7.2-17s-2.367-12.067-7.1-17-11.5-7.4-20.3-7.4zm-41.4 48.8c-10.533-7.6-15.8-18.5-15.8-32.7 0-14.2 5.367-26.233 16.1-36.1s24.433-14.8 41.1-14.8 30.333 4.933 41 14.8c10.667 9.867 16 21.8 16 35.8 0 14-5.867 25-17.6 33h69.4v34.2H217.3v-34.2h14.6zm41.2-180.8c-8.8 0-15.567 2.467-20.3 7.4-4.733 4.933-7.1 10.6-7.1 17s2.4 12.067 7.2 17c4.8 4.933 11.6 7.4 20.4 7.4 8.8 0 15.567-2.467 20.3-7.4 4.733-4.933 7.1-10.6 7.1-17s-2.4-12.067-7.2-17c-4.8-4.933-11.6-7.4-20.4-7.4zm.2 83.6c-16.667 0-30.367-4.933-41.1-14.8s-16.1-21.9-16.1-36.1c0-14.2 5.267-25.1 15.8-32.7h-14.6v-34.2h111.6v34.2h-16.2c11.733 8.267 17.6 19.333 17.6 33.2 0 13.867-5.333 25.733-16 35.6s-24.333 14.8-41 14.8zm-56-182h16.4c-11.733-7.067-17.6-18.333-17.6-33.8 0-12.8 4.267-23.167 12.8-31.1C237.433 4.467 249.033.5 263.7.5h65.2v34h-60.6c-7.2 0-12.767 1.9-16.7 5.7-3.933 3.8-5.9 9.033-5.9 15.7s1.967 11.9 5.9 15.7c3.933 3.8 9.5 5.7 16.7 5.7h60.6v34.2H217.3V77.3z" fill-rule="evenodd" fill-opacity=".02"/></svg>