<svg width="140" height="20" xmlns="http://www.w3.org/2000/svg"><path d="M64.49 7.783h4.353v12.04h3.246V7.783h4.35V4.496H64.49zm52.53-3.288h-3.248v15.328h11.952v-3.288h-8.705zm-14.466 0h-6.246v15.328h6.246c4.182 0 7.572-3.431 7.572-7.664 0-4.232-3.39-7.664-7.572-7.664zm0 12.04h-2.998V7.783h2.998c2.388 0 4.324 1.959 4.324 4.376 0 2.417-1.936 4.377-4.324 4.377zM37.79 4.495h-3.478l-6.3 15.328h3.517l1.526-3.713h5.992l1.526 3.713h3.518l-6.3-15.328zm-.094 8.327h-3.29l1.645-4.001 1.645 4.001zm98.445-8.327l-3.699 6.697-3.7-6.697h-3.72l5.796 10.494v4.834h3.248v-4.834l5.797-10.494zm-78.578 9.922l-7.507-9.922H46.81v15.328h3.247V9.902l7.507 9.921h3.248V4.495h-3.248zm22.456 5.406H91.97v-3.288h-8.704v-2.732h7.906v-3.287h-7.906V7.782h8.704V4.496H80.019zM29.159.147h-4.515L18.838 14.27l-1.947-4.737L20.75.147h-4.516l-1.6 3.894L13.032.147H8.517l3.859 9.387-1.947 4.737L4.623.147H.108l8.088 19.676h4.466l1.972-4.795 1.971 4.795h4.466z" fill="#FFF"/></svg>