<svg xmlns="http://www.w3.org/2000/svg" width="170" height="24"><g fill="none"><path fill="#24282A" d="M83.595 9.189h3.941v14.214h-3.94z"/><path fill="#6A6E71" d="M78.31 5.307h14.51v3.882H78.31zm59.842 14.213h14.513v3.882h-14.513z"/><path fill="#24282A" d="M138.152 5.307h3.943V19.52h-3.943zm-21.207 3.882h3.944v14.214h-3.944z"/><path fill="#6A6E71" d="M124.53 5.307h-7.585v3.881h7.585c2.9 0 5.25 2.313 5.25 5.167 0 2.853-2.35 5.167-5.25 5.167v-.001h-3.641v3.881h3.641c5.078 0 9.194-4.05 9.194-9.047 0-4.997-4.116-9.048-9.194-9.048z"/><path fill="#9DA0A4" d="M40.138 19.019l1.641-3.881h3.994l1.642 3.88z"/><path fill="#24282A" d="M43.776 10.414l-2.135-5.052-7.626 18.04h4.27z"/><path fill="#6A6E71" d="M45.888 5.307h-4.224l-.023.055 7.627 18.04h4.271zm119.426 0l-6.751 11.882.288.506v5.707h.701l10.281-18.095z"/><path fill="#9DA0A4" d="M159.552 23.402h3.243v-5.707z"/><path fill="#24282A" d="M160.822 13.213l-1.971-3.47-2.52-4.436h-4.519l6.751 11.882z"/><path fill="#6A6E71" d="M69.898 5.307V17.02l3.944 5.066V5.306z"/><path fill="#9DA0A4" d="M69.898 17.02L60.783 5.307v6.383l9.115 11.712h3.944v-1.316z"/><path fill="#24282A" d="M56.84 5.307h3.943v18.095H56.84z"/><path fill="#6A6E71" d="M97.166 5.307h14.513v3.882H97.166z"/><path fill="#9DA0A4" d="M101.11 12.414h9.6v3.88h-9.6z"/><path fill="#24282A" d="M101.11 19.521V9.188h-3.944v14.214h14.513v-3.881z"/><path fill="#00A4BB" d="M35.407.173h-5.483l-7.05 16.674-2.363-5.591L25.196.173h-5.483l-1.944 4.598L15.825.173h-5.483l4.686 11.083-2.364 5.591L5.614.173H.131l9.821 23.23h5.423l2.394-5.662 2.394 5.661h5.423z"/></g></svg>